<mxfile host="app.diagrams.net" modified="2020-10-16T16:33:54.881Z" agent="5.0 (Windows NT 10.0; Win64; x64) AppleWebKit/537.36 (KHTML, like Gecko) Chrome/85.0.4183.121 Safari/537.36" etag="KYIoqja2clvvYtnGCEkM" version="13.8.0" type="github">
  <diagram id="C5RBs43oDa-KdzZeNtuy" name="Page-1">
    <mxGraphModel dx="5717" dy="3438" grid="1" gridSize="10" guides="1" tooltips="1" connect="1" arrows="1" fold="1" page="1" pageScale="1" pageWidth="827" pageHeight="1169" math="0" shadow="0">
      <root>
        <mxCell id="WIyWlLk6GJQsqaUBKTNV-0" />
        <mxCell id="WIyWlLk6GJQsqaUBKTNV-1" parent="WIyWlLk6GJQsqaUBKTNV-0" />
        <mxCell id="20cSNjC-Nqerg847piIw-11" style="edgeStyle=orthogonalEdgeStyle;rounded=0;orthogonalLoop=1;jettySize=auto;html=1;exitX=0.5;exitY=1;exitDx=0;exitDy=0;entryX=0.5;entryY=0;entryDx=0;entryDy=0;" edge="1" parent="WIyWlLk6GJQsqaUBKTNV-1" source="WIyWlLk6GJQsqaUBKTNV-3">
          <mxGeometry relative="1" as="geometry">
            <mxPoint x="-70" y="-30" as="targetPoint" />
          </mxGeometry>
        </mxCell>
        <mxCell id="WIyWlLk6GJQsqaUBKTNV-3" value="Lamp doesn&#39;t work" style="rounded=1;whiteSpace=wrap;html=1;fontSize=12;glass=0;strokeWidth=1;shadow=0;" parent="WIyWlLk6GJQsqaUBKTNV-1" vertex="1">
          <mxGeometry x="-120" y="-150" width="100" height="30" as="geometry" />
        </mxCell>
        <mxCell id="20cSNjC-Nqerg847piIw-19" style="edgeStyle=orthogonalEdgeStyle;rounded=0;orthogonalLoop=1;jettySize=auto;html=1;entryX=0.5;entryY=0;entryDx=0;entryDy=0;" edge="1" parent="WIyWlLk6GJQsqaUBKTNV-1" target="20cSNjC-Nqerg847piIw-12">
          <mxGeometry relative="1" as="geometry">
            <mxPoint x="-70" y="-10" as="sourcePoint" />
          </mxGeometry>
        </mxCell>
        <mxCell id="20cSNjC-Nqerg847piIw-12" value="" style="rhombus;whiteSpace=wrap;html=1;" vertex="1" parent="WIyWlLk6GJQsqaUBKTNV-1">
          <mxGeometry x="-146.25" y="70" width="152.5" height="60" as="geometry" />
        </mxCell>
        <mxCell id="20cSNjC-Nqerg847piIw-13" value="" style="endArrow=none;html=1;" edge="1" parent="WIyWlLk6GJQsqaUBKTNV-1">
          <mxGeometry width="50" height="50" relative="1" as="geometry">
            <mxPoint x="-100" y="120" as="sourcePoint" />
            <mxPoint x="-280" y="120" as="targetPoint" />
          </mxGeometry>
        </mxCell>
        <mxCell id="20cSNjC-Nqerg847piIw-18" value="" style="endArrow=classic;html=1;" edge="1" parent="WIyWlLk6GJQsqaUBKTNV-1">
          <mxGeometry width="50" height="50" relative="1" as="geometry">
            <mxPoint x="160" y="120" as="sourcePoint" />
            <mxPoint x="160" y="170" as="targetPoint" />
          </mxGeometry>
        </mxCell>
        <mxCell id="20cSNjC-Nqerg847piIw-20" value="" style="endArrow=none;html=1;" edge="1" parent="WIyWlLk6GJQsqaUBKTNV-1">
          <mxGeometry width="50" height="50" relative="1" as="geometry">
            <mxPoint x="-40" y="120" as="sourcePoint" />
            <mxPoint x="160" y="120" as="targetPoint" />
            <Array as="points">
              <mxPoint x="40" y="120" />
            </Array>
          </mxGeometry>
        </mxCell>
        <mxCell id="20cSNjC-Nqerg847piIw-23" value="" style="rounded=1;whiteSpace=wrap;html=1;" vertex="1" parent="WIyWlLk6GJQsqaUBKTNV-1">
          <mxGeometry x="80" y="170" width="160" height="40" as="geometry" />
        </mxCell>
        <mxCell id="20cSNjC-Nqerg847piIw-25" value="" style="rounded=1;whiteSpace=wrap;html=1;" vertex="1" parent="WIyWlLk6GJQsqaUBKTNV-1">
          <mxGeometry x="-145" y="-30" width="150" height="30" as="geometry" />
        </mxCell>
        <mxCell id="20cSNjC-Nqerg847piIw-27" value="" style="rounded=1;whiteSpace=wrap;html=1;" vertex="1" parent="WIyWlLk6GJQsqaUBKTNV-1">
          <mxGeometry x="-360" y="170" width="170" height="40" as="geometry" />
        </mxCell>
        <mxCell id="20cSNjC-Nqerg847piIw-28" value="" style="rounded=1;whiteSpace=wrap;html=1;" vertex="1" parent="WIyWlLk6GJQsqaUBKTNV-1">
          <mxGeometry x="-165" y="320" width="190" height="40" as="geometry" />
        </mxCell>
        <mxCell id="20cSNjC-Nqerg847piIw-29" value="" style="endArrow=classic;html=1;" edge="1" parent="WIyWlLk6GJQsqaUBKTNV-1">
          <mxGeometry width="50" height="50" relative="1" as="geometry">
            <mxPoint x="-280" y="120" as="sourcePoint" />
            <mxPoint x="-280" y="170" as="targetPoint" />
          </mxGeometry>
        </mxCell>
        <mxCell id="20cSNjC-Nqerg847piIw-34" value="" style="endArrow=none;html=1;" edge="1" parent="WIyWlLk6GJQsqaUBKTNV-1">
          <mxGeometry width="50" height="50" relative="1" as="geometry">
            <mxPoint x="-280" y="260" as="sourcePoint" />
            <mxPoint x="160" y="260" as="targetPoint" />
          </mxGeometry>
        </mxCell>
        <mxCell id="20cSNjC-Nqerg847piIw-36" value="" style="endArrow=none;html=1;entryX=0.5;entryY=1;entryDx=0;entryDy=0;" edge="1" parent="WIyWlLk6GJQsqaUBKTNV-1" target="20cSNjC-Nqerg847piIw-23">
          <mxGeometry width="50" height="50" relative="1" as="geometry">
            <mxPoint x="160" y="260" as="sourcePoint" />
            <mxPoint x="140" y="160" as="targetPoint" />
          </mxGeometry>
        </mxCell>
        <mxCell id="20cSNjC-Nqerg847piIw-38" value="" style="endArrow=none;html=1;" edge="1" parent="WIyWlLk6GJQsqaUBKTNV-1">
          <mxGeometry width="50" height="50" relative="1" as="geometry">
            <mxPoint x="-280" y="210" as="sourcePoint" />
            <mxPoint x="-280" y="260" as="targetPoint" />
          </mxGeometry>
        </mxCell>
        <mxCell id="20cSNjC-Nqerg847piIw-39" value="" style="endArrow=classic;html=1;" edge="1" parent="WIyWlLk6GJQsqaUBKTNV-1">
          <mxGeometry width="50" height="50" relative="1" as="geometry">
            <mxPoint x="-70.5" y="260" as="sourcePoint" />
            <mxPoint x="-70.5" y="320" as="targetPoint" />
          </mxGeometry>
        </mxCell>
        <mxCell id="20cSNjC-Nqerg847piIw-40" value="" style="endArrow=classic;html=1;exitX=0.5;exitY=1;exitDx=0;exitDy=0;" edge="1" parent="WIyWlLk6GJQsqaUBKTNV-1" source="20cSNjC-Nqerg847piIw-28">
          <mxGeometry width="50" height="50" relative="1" as="geometry">
            <mxPoint x="-70" y="380" as="sourcePoint" />
            <mxPoint x="-70" y="470" as="targetPoint" />
          </mxGeometry>
        </mxCell>
        <mxCell id="20cSNjC-Nqerg847piIw-41" value="" style="rhombus;whiteSpace=wrap;html=1;" vertex="1" parent="WIyWlLk6GJQsqaUBKTNV-1">
          <mxGeometry x="-140" y="470" width="140" height="60" as="geometry" />
        </mxCell>
        <mxCell id="20cSNjC-Nqerg847piIw-42" value="" style="endArrow=none;html=1;exitX=1;exitY=0.5;exitDx=0;exitDy=0;" edge="1" parent="WIyWlLk6GJQsqaUBKTNV-1" source="20cSNjC-Nqerg847piIw-41">
          <mxGeometry width="50" height="50" relative="1" as="geometry">
            <mxPoint x="90" y="370" as="sourcePoint" />
            <mxPoint x="320" y="500" as="targetPoint" />
          </mxGeometry>
        </mxCell>
        <mxCell id="20cSNjC-Nqerg847piIw-43" value="" style="endArrow=none;html=1;exitX=0;exitY=0.5;exitDx=0;exitDy=0;" edge="1" parent="WIyWlLk6GJQsqaUBKTNV-1" source="20cSNjC-Nqerg847piIw-41">
          <mxGeometry width="50" height="50" relative="1" as="geometry">
            <mxPoint x="90" y="370" as="sourcePoint" />
            <mxPoint x="-730" y="500" as="targetPoint" />
            <Array as="points">
              <mxPoint x="-700" y="500" />
              <mxPoint x="-690" y="500" />
            </Array>
          </mxGeometry>
        </mxCell>
        <mxCell id="20cSNjC-Nqerg847piIw-109" style="edgeStyle=orthogonalEdgeStyle;rounded=0;orthogonalLoop=1;jettySize=auto;html=1;exitX=1;exitY=0.5;exitDx=0;exitDy=0;strokeColor=#000000;" edge="1" parent="WIyWlLk6GJQsqaUBKTNV-1" source="20cSNjC-Nqerg847piIw-44">
          <mxGeometry relative="1" as="geometry">
            <mxPoint x="-60" y="586" as="targetPoint" />
          </mxGeometry>
        </mxCell>
        <mxCell id="20cSNjC-Nqerg847piIw-111" style="edgeStyle=orthogonalEdgeStyle;rounded=0;orthogonalLoop=1;jettySize=auto;html=1;exitX=1;exitY=1;exitDx=0;exitDy=0;strokeColor=#000000;entryX=0.5;entryY=0;entryDx=0;entryDy=0;" edge="1" parent="WIyWlLk6GJQsqaUBKTNV-1" source="20cSNjC-Nqerg847piIw-44" target="20cSNjC-Nqerg847piIw-107">
          <mxGeometry relative="1" as="geometry">
            <mxPoint x="-370" y="820" as="targetPoint" />
          </mxGeometry>
        </mxCell>
        <mxCell id="20cSNjC-Nqerg847piIw-128" style="edgeStyle=orthogonalEdgeStyle;rounded=0;orthogonalLoop=1;jettySize=auto;html=1;exitX=0;exitY=0.5;exitDx=0;exitDy=0;strokeColor=#000000;" edge="1" parent="WIyWlLk6GJQsqaUBKTNV-1" source="20cSNjC-Nqerg847piIw-44" target="20cSNjC-Nqerg847piIw-123">
          <mxGeometry relative="1" as="geometry" />
        </mxCell>
        <mxCell id="20cSNjC-Nqerg847piIw-44" value="" style="rhombus;whiteSpace=wrap;html=1;" vertex="1" parent="WIyWlLk6GJQsqaUBKTNV-1">
          <mxGeometry x="-780" y="552" width="100" height="68" as="geometry" />
        </mxCell>
        <mxCell id="20cSNjC-Nqerg847piIw-63" style="edgeStyle=orthogonalEdgeStyle;rounded=0;orthogonalLoop=1;jettySize=auto;html=1;exitX=0.5;exitY=1;exitDx=0;exitDy=0;strokeColor=#000000;entryX=0.5;entryY=0;entryDx=0;entryDy=0;" edge="1" parent="WIyWlLk6GJQsqaUBKTNV-1" source="20cSNjC-Nqerg847piIw-45" target="20cSNjC-Nqerg847piIw-64">
          <mxGeometry relative="1" as="geometry">
            <mxPoint x="320" y="990" as="targetPoint" />
          </mxGeometry>
        </mxCell>
        <mxCell id="20cSNjC-Nqerg847piIw-66" style="edgeStyle=orthogonalEdgeStyle;rounded=0;orthogonalLoop=1;jettySize=auto;html=1;exitX=1;exitY=1;exitDx=0;exitDy=0;strokeColor=#000000;entryX=0.5;entryY=0;entryDx=0;entryDy=0;" edge="1" parent="WIyWlLk6GJQsqaUBKTNV-1" source="20cSNjC-Nqerg847piIw-45" target="20cSNjC-Nqerg847piIw-67">
          <mxGeometry relative="1" as="geometry">
            <mxPoint x="640" y="960" as="targetPoint" />
            <Array as="points">
              <mxPoint x="345" y="680" />
              <mxPoint x="820" y="680" />
            </Array>
          </mxGeometry>
        </mxCell>
        <mxCell id="20cSNjC-Nqerg847piIw-68" style="edgeStyle=orthogonalEdgeStyle;rounded=0;orthogonalLoop=1;jettySize=auto;html=1;exitX=1;exitY=0.5;exitDx=0;exitDy=0;strokeColor=#000000;" edge="1" parent="WIyWlLk6GJQsqaUBKTNV-1" source="20cSNjC-Nqerg847piIw-45">
          <mxGeometry relative="1" as="geometry">
            <mxPoint x="640" y="1310" as="targetPoint" />
            <Array as="points">
              <mxPoint x="640" y="578" />
              <mxPoint x="640" y="1120" />
            </Array>
          </mxGeometry>
        </mxCell>
        <mxCell id="20cSNjC-Nqerg847piIw-110" style="edgeStyle=orthogonalEdgeStyle;rounded=0;orthogonalLoop=1;jettySize=auto;html=1;exitX=0;exitY=0.5;exitDx=0;exitDy=0;strokeColor=#000000;" edge="1" parent="WIyWlLk6GJQsqaUBKTNV-1" source="20cSNjC-Nqerg847piIw-45">
          <mxGeometry relative="1" as="geometry">
            <mxPoint x="40" y="585" as="targetPoint" />
          </mxGeometry>
        </mxCell>
        <mxCell id="20cSNjC-Nqerg847piIw-45" value="" style="rhombus;whiteSpace=wrap;html=1;" vertex="1" parent="WIyWlLk6GJQsqaUBKTNV-1">
          <mxGeometry x="270" y="552" width="100" height="65" as="geometry" />
        </mxCell>
        <mxCell id="20cSNjC-Nqerg847piIw-46" value="" style="endArrow=classic;html=1;" edge="1" parent="WIyWlLk6GJQsqaUBKTNV-1">
          <mxGeometry width="50" height="50" relative="1" as="geometry">
            <mxPoint x="320" y="500" as="sourcePoint" />
            <mxPoint x="319.5" y="552" as="targetPoint" />
          </mxGeometry>
        </mxCell>
        <mxCell id="20cSNjC-Nqerg847piIw-52" value="" style="endArrow=classic;html=1;entryX=0.5;entryY=0;entryDx=0;entryDy=0;" edge="1" parent="WIyWlLk6GJQsqaUBKTNV-1" target="20cSNjC-Nqerg847piIw-44">
          <mxGeometry width="50" height="50" relative="1" as="geometry">
            <mxPoint x="-730" y="500" as="sourcePoint" />
            <mxPoint x="-200" y="320" as="targetPoint" />
            <Array as="points">
              <mxPoint x="-730" y="530" />
            </Array>
          </mxGeometry>
        </mxCell>
        <mxCell id="20cSNjC-Nqerg847piIw-53" value="" style="endArrow=classic;html=1;exitX=0.5;exitY=1;exitDx=0;exitDy=0;entryX=0.5;entryY=0;entryDx=0;entryDy=0;" edge="1" parent="WIyWlLk6GJQsqaUBKTNV-1" source="20cSNjC-Nqerg847piIw-44" target="20cSNjC-Nqerg847piIw-118">
          <mxGeometry width="50" height="50" relative="1" as="geometry">
            <mxPoint x="-750" y="610" as="sourcePoint" />
            <mxPoint x="-730" y="770" as="targetPoint" />
          </mxGeometry>
        </mxCell>
        <mxCell id="20cSNjC-Nqerg847piIw-115" style="edgeStyle=orthogonalEdgeStyle;rounded=0;orthogonalLoop=1;jettySize=auto;html=1;exitX=1;exitY=1;exitDx=0;exitDy=0;strokeColor=#006600;" edge="1" parent="WIyWlLk6GJQsqaUBKTNV-1" source="20cSNjC-Nqerg847piIw-57" target="20cSNjC-Nqerg847piIw-114">
          <mxGeometry relative="1" as="geometry" />
        </mxCell>
        <mxCell id="20cSNjC-Nqerg847piIw-116" style="edgeStyle=orthogonalEdgeStyle;rounded=0;orthogonalLoop=1;jettySize=auto;html=1;exitX=1;exitY=0;exitDx=0;exitDy=0;entryX=0.5;entryY=0;entryDx=0;entryDy=0;strokeColor=#006600;" edge="1" parent="WIyWlLk6GJQsqaUBKTNV-1" source="20cSNjC-Nqerg847piIw-57" target="20cSNjC-Nqerg847piIw-113">
          <mxGeometry relative="1" as="geometry" />
        </mxCell>
        <mxCell id="20cSNjC-Nqerg847piIw-57" value="" style="rhombus;whiteSpace=wrap;html=1;direction=south;fillColor=#d5e8d4;strokeColor=#82b366;" vertex="1" parent="WIyWlLk6GJQsqaUBKTNV-1">
          <mxGeometry x="-780" y="940" width="100" height="70" as="geometry" />
        </mxCell>
        <mxCell id="20cSNjC-Nqerg847piIw-85" style="edgeStyle=orthogonalEdgeStyle;rounded=0;orthogonalLoop=1;jettySize=auto;html=1;strokeColor=#000000;" edge="1" parent="WIyWlLk6GJQsqaUBKTNV-1" source="20cSNjC-Nqerg847piIw-64" target="20cSNjC-Nqerg847piIw-83">
          <mxGeometry relative="1" as="geometry" />
        </mxCell>
        <mxCell id="20cSNjC-Nqerg847piIw-86" style="edgeStyle=orthogonalEdgeStyle;rounded=0;orthogonalLoop=1;jettySize=auto;html=1;exitX=0.5;exitY=1;exitDx=0;exitDy=0;strokeColor=#000000;" edge="1" parent="WIyWlLk6GJQsqaUBKTNV-1" source="20cSNjC-Nqerg847piIw-64" target="20cSNjC-Nqerg847piIw-82">
          <mxGeometry relative="1" as="geometry" />
        </mxCell>
        <mxCell id="20cSNjC-Nqerg847piIw-87" style="edgeStyle=orthogonalEdgeStyle;rounded=0;orthogonalLoop=1;jettySize=auto;html=1;exitX=1;exitY=0.5;exitDx=0;exitDy=0;strokeColor=#000000;" edge="1" parent="WIyWlLk6GJQsqaUBKTNV-1" source="20cSNjC-Nqerg847piIw-64" target="20cSNjC-Nqerg847piIw-81">
          <mxGeometry relative="1" as="geometry" />
        </mxCell>
        <mxCell id="20cSNjC-Nqerg847piIw-64" value="" style="rhombus;whiteSpace=wrap;html=1;" vertex="1" parent="WIyWlLk6GJQsqaUBKTNV-1">
          <mxGeometry x="90" y="940" width="100" height="70" as="geometry" />
        </mxCell>
        <mxCell id="20cSNjC-Nqerg847piIw-72" style="edgeStyle=orthogonalEdgeStyle;rounded=0;orthogonalLoop=1;jettySize=auto;html=1;exitX=0;exitY=0.5;exitDx=0;exitDy=0;entryX=0.838;entryY=-0.025;entryDx=0;entryDy=0;entryPerimeter=0;strokeColor=#000000;" edge="1" parent="WIyWlLk6GJQsqaUBKTNV-1" source="20cSNjC-Nqerg847piIw-67" target="20cSNjC-Nqerg847piIw-69">
          <mxGeometry relative="1" as="geometry" />
        </mxCell>
        <mxCell id="20cSNjC-Nqerg847piIw-73" style="edgeStyle=orthogonalEdgeStyle;rounded=0;orthogonalLoop=1;jettySize=auto;html=1;exitX=0.5;exitY=1;exitDx=0;exitDy=0;entryX=0.375;entryY=0.05;entryDx=0;entryDy=0;entryPerimeter=0;strokeColor=#000000;" edge="1" parent="WIyWlLk6GJQsqaUBKTNV-1" source="20cSNjC-Nqerg847piIw-67" target="20cSNjC-Nqerg847piIw-70">
          <mxGeometry relative="1" as="geometry" />
        </mxCell>
        <mxCell id="20cSNjC-Nqerg847piIw-74" style="edgeStyle=orthogonalEdgeStyle;rounded=0;orthogonalLoop=1;jettySize=auto;html=1;exitX=1;exitY=0.5;exitDx=0;exitDy=0;entryX=0.5;entryY=0;entryDx=0;entryDy=0;strokeColor=#000000;" edge="1" parent="WIyWlLk6GJQsqaUBKTNV-1" source="20cSNjC-Nqerg847piIw-67" target="20cSNjC-Nqerg847piIw-71">
          <mxGeometry relative="1" as="geometry" />
        </mxCell>
        <mxCell id="20cSNjC-Nqerg847piIw-67" value="" style="rhombus;whiteSpace=wrap;html=1;" vertex="1" parent="WIyWlLk6GJQsqaUBKTNV-1">
          <mxGeometry x="770" y="940" width="100" height="70" as="geometry" />
        </mxCell>
        <mxCell id="20cSNjC-Nqerg847piIw-79" style="edgeStyle=orthogonalEdgeStyle;rounded=0;orthogonalLoop=1;jettySize=auto;html=1;exitX=0.5;exitY=1;exitDx=0;exitDy=0;entryX=0.438;entryY=-0.075;entryDx=0;entryDy=0;entryPerimeter=0;strokeColor=#000000;" edge="1" parent="WIyWlLk6GJQsqaUBKTNV-1" source="20cSNjC-Nqerg847piIw-69" target="20cSNjC-Nqerg847piIw-78">
          <mxGeometry relative="1" as="geometry" />
        </mxCell>
        <mxCell id="20cSNjC-Nqerg847piIw-69" value="" style="rounded=1;whiteSpace=wrap;html=1;" vertex="1" parent="WIyWlLk6GJQsqaUBKTNV-1">
          <mxGeometry x="560" y="1310" width="160" height="40" as="geometry" />
        </mxCell>
        <mxCell id="20cSNjC-Nqerg847piIw-76" style="edgeStyle=orthogonalEdgeStyle;rounded=0;orthogonalLoop=1;jettySize=auto;html=1;exitX=0.5;exitY=1;exitDx=0;exitDy=0;entryX=0.5;entryY=0;entryDx=0;entryDy=0;strokeColor=#000000;" edge="1" parent="WIyWlLk6GJQsqaUBKTNV-1" source="20cSNjC-Nqerg847piIw-70" target="20cSNjC-Nqerg847piIw-75">
          <mxGeometry relative="1" as="geometry" />
        </mxCell>
        <mxCell id="20cSNjC-Nqerg847piIw-70" value="" style="rounded=1;whiteSpace=wrap;html=1;" vertex="1" parent="WIyWlLk6GJQsqaUBKTNV-1">
          <mxGeometry x="760" y="1310" width="160" height="40" as="geometry" />
        </mxCell>
        <mxCell id="20cSNjC-Nqerg847piIw-77" style="edgeStyle=orthogonalEdgeStyle;rounded=0;orthogonalLoop=1;jettySize=auto;html=1;exitX=0.5;exitY=1;exitDx=0;exitDy=0;entryX=0.5;entryY=0;entryDx=0;entryDy=0;strokeColor=#000000;" edge="1" parent="WIyWlLk6GJQsqaUBKTNV-1" source="20cSNjC-Nqerg847piIw-71" target="20cSNjC-Nqerg847piIw-75">
          <mxGeometry relative="1" as="geometry" />
        </mxCell>
        <mxCell id="20cSNjC-Nqerg847piIw-71" value="" style="rounded=1;whiteSpace=wrap;html=1;" vertex="1" parent="WIyWlLk6GJQsqaUBKTNV-1">
          <mxGeometry x="960" y="1310" width="160" height="40" as="geometry" />
        </mxCell>
        <mxCell id="20cSNjC-Nqerg847piIw-80" style="edgeStyle=orthogonalEdgeStyle;rounded=0;orthogonalLoop=1;jettySize=auto;html=1;exitX=0;exitY=0.5;exitDx=0;exitDy=0;strokeColor=#000000;entryX=1;entryY=0.5;entryDx=0;entryDy=0;" edge="1" parent="WIyWlLk6GJQsqaUBKTNV-1" source="20cSNjC-Nqerg847piIw-75" target="20cSNjC-Nqerg847piIw-78">
          <mxGeometry relative="1" as="geometry">
            <mxPoint x="790" y="1790" as="targetPoint" />
          </mxGeometry>
        </mxCell>
        <mxCell id="20cSNjC-Nqerg847piIw-75" value="" style="rounded=1;whiteSpace=wrap;html=1;" vertex="1" parent="WIyWlLk6GJQsqaUBKTNV-1">
          <mxGeometry x="870" y="1480" width="160" height="40" as="geometry" />
        </mxCell>
        <mxCell id="20cSNjC-Nqerg847piIw-78" value="" style="rounded=1;whiteSpace=wrap;html=1;" vertex="1" parent="WIyWlLk6GJQsqaUBKTNV-1">
          <mxGeometry x="570" y="1750" width="160" height="40" as="geometry" />
        </mxCell>
        <mxCell id="20cSNjC-Nqerg847piIw-81" value="" style="rounded=1;whiteSpace=wrap;html=1;" vertex="1" parent="WIyWlLk6GJQsqaUBKTNV-1">
          <mxGeometry x="290" y="1310" width="160" height="40" as="geometry" />
        </mxCell>
        <mxCell id="20cSNjC-Nqerg847piIw-92" style="edgeStyle=orthogonalEdgeStyle;rounded=0;orthogonalLoop=1;jettySize=auto;html=1;exitX=0.5;exitY=1;exitDx=0;exitDy=0;strokeColor=#000000;" edge="1" parent="WIyWlLk6GJQsqaUBKTNV-1" source="20cSNjC-Nqerg847piIw-82">
          <mxGeometry relative="1" as="geometry">
            <mxPoint x="140" y="1600" as="targetPoint" />
          </mxGeometry>
        </mxCell>
        <mxCell id="20cSNjC-Nqerg847piIw-82" value="" style="rounded=1;whiteSpace=wrap;html=1;" vertex="1" parent="WIyWlLk6GJQsqaUBKTNV-1">
          <mxGeometry x="60" y="1310" width="160" height="40" as="geometry" />
        </mxCell>
        <mxCell id="20cSNjC-Nqerg847piIw-83" value="" style="rounded=1;whiteSpace=wrap;html=1;" vertex="1" parent="WIyWlLk6GJQsqaUBKTNV-1">
          <mxGeometry x="-170" y="1310" width="160" height="40" as="geometry" />
        </mxCell>
        <mxCell id="20cSNjC-Nqerg847piIw-88" value="" style="endArrow=none;html=1;strokeColor=#000000;exitX=0.5;exitY=1;exitDx=0;exitDy=0;" edge="1" parent="WIyWlLk6GJQsqaUBKTNV-1" source="20cSNjC-Nqerg847piIw-83">
          <mxGeometry width="50" height="50" relative="1" as="geometry">
            <mxPoint x="-90" y="1380" as="sourcePoint" />
            <mxPoint x="-90" y="1500" as="targetPoint" />
          </mxGeometry>
        </mxCell>
        <mxCell id="20cSNjC-Nqerg847piIw-89" value="" style="endArrow=none;html=1;strokeColor=#000000;entryX=0.5;entryY=1;entryDx=0;entryDy=0;" edge="1" parent="WIyWlLk6GJQsqaUBKTNV-1" target="20cSNjC-Nqerg847piIw-81">
          <mxGeometry width="50" height="50" relative="1" as="geometry">
            <mxPoint x="370" y="1500" as="sourcePoint" />
            <mxPoint x="170" y="1460" as="targetPoint" />
          </mxGeometry>
        </mxCell>
        <mxCell id="20cSNjC-Nqerg847piIw-90" value="" style="endArrow=none;html=1;strokeColor=#000000;" edge="1" parent="WIyWlLk6GJQsqaUBKTNV-1">
          <mxGeometry width="50" height="50" relative="1" as="geometry">
            <mxPoint x="-90" y="1500" as="sourcePoint" />
            <mxPoint x="370" y="1500" as="targetPoint" />
          </mxGeometry>
        </mxCell>
        <mxCell id="20cSNjC-Nqerg847piIw-94" style="edgeStyle=orthogonalEdgeStyle;rounded=0;orthogonalLoop=1;jettySize=auto;html=1;exitX=1;exitY=0.5;exitDx=0;exitDy=0;strokeColor=#000000;entryX=0;entryY=0.5;entryDx=0;entryDy=0;" edge="1" parent="WIyWlLk6GJQsqaUBKTNV-1" source="20cSNjC-Nqerg847piIw-93" target="20cSNjC-Nqerg847piIw-78">
          <mxGeometry relative="1" as="geometry">
            <mxPoint x="420" y="1760" as="targetPoint" />
          </mxGeometry>
        </mxCell>
        <mxCell id="20cSNjC-Nqerg847piIw-93" value="" style="rounded=1;whiteSpace=wrap;html=1;" vertex="1" parent="WIyWlLk6GJQsqaUBKTNV-1">
          <mxGeometry x="60" y="1600" width="160" height="40" as="geometry" />
        </mxCell>
        <mxCell id="20cSNjC-Nqerg847piIw-100" style="edgeStyle=orthogonalEdgeStyle;rounded=0;orthogonalLoop=1;jettySize=auto;html=1;exitX=1;exitY=1;exitDx=0;exitDy=0;strokeColor=#FF8000;" edge="1" parent="WIyWlLk6GJQsqaUBKTNV-1" source="20cSNjC-Nqerg847piIw-95" target="20cSNjC-Nqerg847piIw-97">
          <mxGeometry relative="1" as="geometry" />
        </mxCell>
        <mxCell id="20cSNjC-Nqerg847piIw-101" style="edgeStyle=orthogonalEdgeStyle;rounded=0;orthogonalLoop=1;jettySize=auto;html=1;exitX=0;exitY=1;exitDx=0;exitDy=0;strokeColor=#FF8000;" edge="1" parent="WIyWlLk6GJQsqaUBKTNV-1" source="20cSNjC-Nqerg847piIw-95" target="20cSNjC-Nqerg847piIw-98">
          <mxGeometry relative="1" as="geometry" />
        </mxCell>
        <mxCell id="20cSNjC-Nqerg847piIw-95" value="" style="rhombus;whiteSpace=wrap;html=1;fillColor=#ffe6cc;strokeColor=#d79b00;" vertex="1" parent="WIyWlLk6GJQsqaUBKTNV-1">
          <mxGeometry x="-405.62" y="940" width="100" height="70" as="geometry" />
        </mxCell>
        <mxCell id="20cSNjC-Nqerg847piIw-97" value="" style="rhombus;whiteSpace=wrap;html=1;fillColor=#ffe6cc;strokeColor=#d79b00;" vertex="1" parent="WIyWlLk6GJQsqaUBKTNV-1">
          <mxGeometry x="-310" y="1290" width="100" height="70" as="geometry" />
        </mxCell>
        <mxCell id="20cSNjC-Nqerg847piIw-103" style="edgeStyle=orthogonalEdgeStyle;rounded=0;orthogonalLoop=1;jettySize=auto;html=1;exitX=1;exitY=1;exitDx=0;exitDy=0;strokeColor=#FF8000;entryX=0.25;entryY=0;entryDx=0;entryDy=0;" edge="1" parent="WIyWlLk6GJQsqaUBKTNV-1" source="20cSNjC-Nqerg847piIw-98" target="20cSNjC-Nqerg847piIw-78">
          <mxGeometry relative="1" as="geometry">
            <mxPoint x="610" y="1730" as="targetPoint" />
            <Array as="points">
              <mxPoint x="-450" y="1343" />
              <mxPoint x="-450" y="1580" />
              <mxPoint x="10" y="1580" />
              <mxPoint x="10" y="1720" />
              <mxPoint x="610" y="1720" />
            </Array>
          </mxGeometry>
        </mxCell>
        <mxCell id="20cSNjC-Nqerg847piIw-98" value="" style="rhombus;whiteSpace=wrap;html=1;fillColor=#ffe6cc;strokeColor=#d79b00;" vertex="1" parent="WIyWlLk6GJQsqaUBKTNV-1">
          <mxGeometry x="-500" y="1290" width="100" height="70" as="geometry" />
        </mxCell>
        <mxCell id="20cSNjC-Nqerg847piIw-104" value="" style="rounded=1;html=1;strokeColor=#FFFFFF;fillColor=#FFFFFF;whiteSpace=wrap;" vertex="1" parent="WIyWlLk6GJQsqaUBKTNV-1">
          <mxGeometry x="-170" y="650" width="120" height="60" as="geometry" />
        </mxCell>
        <mxCell id="20cSNjC-Nqerg847piIw-106" value="" style="rounded=1;whiteSpace=wrap;html=1;strokeColor=#000000;gradientColor=none;fillColor=#CC0000;" vertex="1" parent="WIyWlLk6GJQsqaUBKTNV-1">
          <mxGeometry x="-220" y="850" width="150" height="40" as="geometry" />
        </mxCell>
        <mxCell id="20cSNjC-Nqerg847piIw-108" style="edgeStyle=orthogonalEdgeStyle;rounded=0;orthogonalLoop=1;jettySize=auto;html=1;exitX=0.5;exitY=1;exitDx=0;exitDy=0;entryX=0.5;entryY=0;entryDx=0;entryDy=0;" edge="1" parent="WIyWlLk6GJQsqaUBKTNV-1" source="20cSNjC-Nqerg847piIw-107" target="20cSNjC-Nqerg847piIw-95">
          <mxGeometry relative="1" as="geometry" />
        </mxCell>
        <mxCell id="20cSNjC-Nqerg847piIw-107" value="" style="rounded=1;whiteSpace=wrap;html=1;strokeColor=#9673a6;fillColor=#e1d5e7;" vertex="1" parent="WIyWlLk6GJQsqaUBKTNV-1">
          <mxGeometry x="-431.25" y="850" width="151.25" height="40" as="geometry" />
        </mxCell>
        <mxCell id="20cSNjC-Nqerg847piIw-113" value="" style="rhombus;whiteSpace=wrap;html=1;strokeColor=#82b366;fillColor=#d5e8d4;" vertex="1" parent="WIyWlLk6GJQsqaUBKTNV-1">
          <mxGeometry x="-690" y="1290" width="100" height="70" as="geometry" />
        </mxCell>
        <mxCell id="20cSNjC-Nqerg847piIw-117" style="edgeStyle=orthogonalEdgeStyle;rounded=0;orthogonalLoop=1;jettySize=auto;html=1;exitX=0.5;exitY=1;exitDx=0;exitDy=0;strokeColor=#006600;entryX=0.25;entryY=1;entryDx=0;entryDy=0;" edge="1" parent="WIyWlLk6GJQsqaUBKTNV-1" source="20cSNjC-Nqerg847piIw-114" target="20cSNjC-Nqerg847piIw-78">
          <mxGeometry relative="1" as="geometry">
            <mxPoint x="570" y="1810" as="targetPoint" />
            <Array as="points">
              <mxPoint x="-820" y="1810" />
              <mxPoint x="610" y="1810" />
            </Array>
          </mxGeometry>
        </mxCell>
        <mxCell id="20cSNjC-Nqerg847piIw-114" value="" style="rhombus;whiteSpace=wrap;html=1;strokeColor=#82b366;fillColor=#d5e8d4;" vertex="1" parent="WIyWlLk6GJQsqaUBKTNV-1">
          <mxGeometry x="-870" y="1290" width="100" height="70" as="geometry" />
        </mxCell>
        <mxCell id="20cSNjC-Nqerg847piIw-119" style="edgeStyle=orthogonalEdgeStyle;rounded=0;orthogonalLoop=1;jettySize=auto;html=1;exitX=0.5;exitY=1;exitDx=0;exitDy=0;strokeColor=#000000;" edge="1" parent="WIyWlLk6GJQsqaUBKTNV-1" source="20cSNjC-Nqerg847piIw-118" target="20cSNjC-Nqerg847piIw-57">
          <mxGeometry relative="1" as="geometry" />
        </mxCell>
        <mxCell id="20cSNjC-Nqerg847piIw-118" value="" style="rounded=1;whiteSpace=wrap;html=1;strokeColor=#9673a6;fillColor=#e1d5e7;" vertex="1" parent="WIyWlLk6GJQsqaUBKTNV-1">
          <mxGeometry x="-807.5" y="850" width="157.5" height="40" as="geometry" />
        </mxCell>
        <mxCell id="20cSNjC-Nqerg847piIw-120" value="" style="rhombus;whiteSpace=wrap;html=1;strokeColor=#6c8ebf;fillColor=#dae8fc;" vertex="1" parent="WIyWlLk6GJQsqaUBKTNV-1">
          <mxGeometry x="-1260" y="1290" width="100" height="70" as="geometry" />
        </mxCell>
        <mxCell id="20cSNjC-Nqerg847piIw-122" value="" style="rhombus;whiteSpace=wrap;html=1;strokeColor=#6c8ebf;fillColor=#dae8fc;" vertex="1" parent="WIyWlLk6GJQsqaUBKTNV-1">
          <mxGeometry x="-1600" y="1290" width="100" height="70" as="geometry" />
        </mxCell>
        <mxCell id="20cSNjC-Nqerg847piIw-124" style="edgeStyle=orthogonalEdgeStyle;rounded=0;orthogonalLoop=1;jettySize=auto;html=1;exitX=0;exitY=1;exitDx=0;exitDy=0;strokeColor=#6c8ebf;fillColor=#dae8fc;" edge="1" parent="WIyWlLk6GJQsqaUBKTNV-1" source="20cSNjC-Nqerg847piIw-123" target="20cSNjC-Nqerg847piIw-122">
          <mxGeometry relative="1" as="geometry" />
        </mxCell>
        <mxCell id="20cSNjC-Nqerg847piIw-126" style="edgeStyle=orthogonalEdgeStyle;rounded=0;orthogonalLoop=1;jettySize=auto;html=1;exitX=1;exitY=1;exitDx=0;exitDy=0;entryX=0;entryY=0.75;entryDx=0;entryDy=0;strokeColor=#6c8ebf;fillColor=#dae8fc;" edge="1" parent="WIyWlLk6GJQsqaUBKTNV-1" source="20cSNjC-Nqerg847piIw-123" target="20cSNjC-Nqerg847piIw-125">
          <mxGeometry relative="1" as="geometry" />
        </mxCell>
        <mxCell id="20cSNjC-Nqerg847piIw-123" value="" style="rhombus;whiteSpace=wrap;html=1;strokeColor=#6c8ebf;fillColor=#dae8fc;" vertex="1" parent="WIyWlLk6GJQsqaUBKTNV-1">
          <mxGeometry x="-1460" y="940" width="100" height="70" as="geometry" />
        </mxCell>
        <mxCell id="20cSNjC-Nqerg847piIw-127" style="edgeStyle=orthogonalEdgeStyle;rounded=0;orthogonalLoop=1;jettySize=auto;html=1;exitX=0.5;exitY=1;exitDx=0;exitDy=0;strokeColor=#6c8ebf;fillColor=#dae8fc;" edge="1" parent="WIyWlLk6GJQsqaUBKTNV-1" source="20cSNjC-Nqerg847piIw-125" target="20cSNjC-Nqerg847piIw-120">
          <mxGeometry relative="1" as="geometry">
            <mxPoint x="-1220" y="1220" as="targetPoint" />
            <Array as="points" />
          </mxGeometry>
        </mxCell>
        <mxCell id="20cSNjC-Nqerg847piIw-125" value="" style="rounded=1;whiteSpace=wrap;html=1;strokeColor=#9673a6;fillColor=#e1d5e7;" vertex="1" parent="WIyWlLk6GJQsqaUBKTNV-1">
          <mxGeometry x="-1290" y="1020" width="160" height="40" as="geometry" />
        </mxCell>
      </root>
    </mxGraphModel>
  </diagram>
</mxfile>
